<?xml version="1.0" standalone="no"?>
<!DOCTYPE svg PUBLIC "-//W3C//DTD SVG 20010904//EN"
 "http://www.w3.org/TR/2001/REC-SVG-20010904/DTD/svg10.dtd">
<svg version="1.0" xmlns="http://www.w3.org/2000/svg"
 width="24.000000pt" height="104.000000pt" viewBox="0 0 150.000000 104.000000"
 preserveAspectRatio="xMidYMid meet">

<g transform="translate(0.000000,104.000000) scale(0.100000,-0.100000)"
fill="#000000" stroke="none">
<path d="M590 966 c-78 -17 -163 -48 -228 -84 -70 -39 -168 -141 -200 -209
-24 -51 -27 -70 -27 -158 0 -90 3 -106 29 -160 99 -203 391 -332 666 -295 221
30 399 142 473 297 29 62 32 77 32 163 0 85 -3 102 -29 155 -60 123 -216 237
-381 280 -85 22 -255 28 -335 11z m365 -40 c153 -49 271 -140 328 -256 29 -58
32 -73 32 -155 0 -117 -28 -181 -118 -269 -117 -115 -266 -170 -462 -170 -139
0 -212 16 -325 71 -88 42 -194 142 -228 213 -72 150 -38 303 93 429 71 69 190
131 285 150 30 6 64 13 75 15 11 3 70 3 130 1 82 -2 130 -10 190 -29z"/>
<path d="M688 923 c23 -2 61 -2 85 0 23 2 4 4 -43 4 -47 0 -66 -2 -42 -4z"/>
<path d="M593 913 c9 -2 23 -2 30 0 6 3 -1 5 -18 5 -16 0 -22 -2 -12 -5z"/>
<path d="M848 913 c6 -2 18 -2 25 0 6 3 1 5 -13 5 -14 0 -19 -2 -12 -5z"/>
<path d="M548 903 c7 -3 16 -2 19 1 4 3 -2 6 -13 5 -11 0 -14 -3 -6 -6z"/>
<path d="M945 890 c32 -11 61 -18 63 -16 5 5 -89 36 -107 35 -9 0 11 -9 44
-19z"/>
<path d="M421 859 c-33 -17 -86 -54 -117 -82 -53 -48 -114 -137 -114 -166 0
-8 14 13 31 47 38 77 117 151 212 197 40 19 67 35 61 35 -6 0 -39 -14 -73 -31z"/>
<path d="M697 876 c-4 -9 -3 -26 2 -38 8 -21 8 -21 13 4 6 32 -6 58 -15 34z"/>
<path d="M750 857 c0 -34 3 -35 50 -28 12 2 3 55 -10 59 -9 3 -11 -1 -7 -14 7
-18 6 -18 -7 -1 -19 25 -26 21 -26 -16z"/>
<path d="M606 871 c-10 -16 4 -58 18 -58 8 0 14 11 14 23 0 27 -23 51 -32 35z
m24 -21 c0 -5 -4 -10 -10 -10 -5 0 -10 5 -10 10 0 6 5 10 10 10 6 0 10 -4 10
-10z"/>
<path d="M839 876 c0 0 -3 -16 -5 -33 -5 -32 8 -44 21 -22 5 6 11 4 19 -6 10
-14 12 -12 13 18 1 29 -3 36 -23 40 -13 2 -24 4 -25 3z"/>
<path d="M570 850 c0 -36 16 -58 23 -31 2 11 -1 28 -9 38 -12 17 -13 16 -14
-7z"/>
<path d="M660 848 c0 -16 5 -28 10 -28 13 0 13 20 0 40 -8 12 -10 9 -10 -12z"/>
<path d="M1070 838 c74 -43 150 -121 183 -188 15 -30 25 -44 21 -30 -9 36 -57
110 -96 147 -38 36 -137 103 -153 103 -5 0 15 -15 45 -32z"/>
<path d="M513 847 c-27 -12 -32 -40 -5 -30 15 6 16 5 2 -12 -8 -10 -10 -16 -3
-12 6 4 13 2 15 -3 2 -6 11 -1 20 10 10 11 13 20 8 20 -5 0 -7 6 -4 14 8 20
-7 25 -33 13z"/>
<path d="M921 847 c-6 -6 -11 -22 -11 -36 0 -19 3 -22 12 -13 15 15 29 16 26
1 -2 -6 4 -14 12 -17 8 -2 12 -1 8 3 -4 5 -3 14 3 21 6 8 9 20 6 27 -7 19 -43
27 -56 14z"/>
<path d="M418 813 c-19 -5 -25 -23 -8 -23 6 0 10 -6 10 -14 0 -8 7 -16 15 -20
8 -3 15 -1 15 4 0 5 7 7 15 4 12 -5 13 -1 4 25 -11 30 -17 33 -51 24z"/>
<path d="M1000 794 c-12 -32 -12 -37 -1 -29 6 3 14 -2 19 -11 7 -13 11 -12 26
11 14 21 15 29 5 41 -18 22 -38 17 -49 -12z m40 -4 c0 -5 -5 -10 -11 -10 -5 0
-7 5 -4 10 3 6 8 10 11 10 2 0 4 -4 4 -10z"/>
<path d="M698 783 c23 -2 59 -2 80 0 20 2 1 4 -43 4 -44 0 -61 -2 -37 -4z"/>
<path d="M356 767 c-18 -13 -18 -18 -7 -46 8 -17 15 -31 17 -31 2 0 14 10 26
22 18 18 19 23 6 32 -8 6 -17 17 -19 24 -3 10 -8 10 -23 -1z"/>
<path d="M608 773 c6 -2 18 -2 25 0 6 3 1 5 -13 5 -14 0 -19 -2 -12 -5z"/>
<path d="M838 773 c6 -2 18 -2 25 0 6 3 1 5 -13 5 -14 0 -19 -2 -12 -5z"/>
<path d="M1071 756 c-16 -17 -18 -25 -9 -34 16 -16 28 -15 24 1 -1 6 -1 9 1 4
3 -4 9 -4 14 -1 6 3 5 11 -2 20 -7 9 -8 14 -1 14 18 0 20 -24 3 -50 l-15 -25
27 24 c33 30 33 35 3 54 -22 15 -25 14 -45 -7z"/>
<path d="M568 763 c7 -3 16 -2 19 1 4 3 -2 6 -13 5 -11 0 -14 -3 -6 -6z"/>
<path d="M910 755 c46 -18 64 -17 25 0 -16 8 -37 14 -45 14 -8 0 1 -7 20 -14z"/>
<path d="M520 750 c-8 -5 -10 -10 -5 -10 6 0 17 5 25 10 8 5 11 10 5 10 -5 0
-17 -5 -25 -10z"/>
<path d="M433 705 c-48 -32 -103 -96 -103 -119 0 -5 12 9 26 30 30 43 40 52
103 95 25 16 41 29 35 29 -5 0 -33 -16 -61 -35z"/>
<path d="M1005 718 c11 -7 44 -37 73 -65 28 -29 52 -50 52 -48 0 14 -88 98
-114 111 -17 8 -22 9 -11 2z"/>
<path d="M285 696 c-18 -27 -14 -40 14 -56 14 -7 23 -4 40 14 l22 24 -30 21
-30 22 -16 -25z m40 -6 c3 -5 2 -10 -4 -10 -5 0 -13 5 -16 10 -3 6 -2 10 4 10
5 0 13 -4 16 -10z m-9 -38 c-4 -3 -14 2 -24 12 -16 18 -16 18 6 6 13 -6 21
-14 18 -18z"/>
<path d="M621 538 c-82 -171 -82 -172 -62 -191 20 -20 20 -20 97 15 l77 35 75
-34 c75 -34 75 -34 95 -14 20 20 20 20 -3 73 -12 29 -49 106 -81 171 -55 108
-61 117 -87 117 -27 0 -33 -9 -111 -172z m219 -120 c0 -4 -24 3 -53 16 l-53
23 -53 -24 c-30 -13 -55 -22 -56 -21 -1 2 23 55 53 118 l55 115 53 -110 c30
-60 54 -113 54 -117z"/>
<path d="M1143 703 c-7 -2 -13 -14 -13 -25 0 -20 1 -21 20 -3 19 17 20 17 20
1 0 -9 -4 -15 -9 -12 -14 9 -23 -26 -10 -38 8 -8 10 -7 7 4 -3 9 5 19 19 25
22 9 23 11 8 33 -17 23 -21 24 -42 15z"/>
<path d="M247 623 c-11 -3 -16 -10 -13 -20 3 -8 6 -17 6 -19 0 -3 5 -2 12 2 6
4 16 0 23 -9 11 -15 13 -14 24 9 6 15 9 29 6 32 -3 3 -5 0 -5 -6 0 -7 -7 -12
-16 -12 -10 0 -14 6 -10 15 6 15 4 16 -27 8z"/>
<path d="M1176 615 c-17 -13 -17 -15 -2 -37 9 -12 16 -17 16 -11 0 6 9 9 20 6
16 -4 20 0 20 20 0 14 -7 28 -16 31 -19 7 -15 8 -38 -9z m35 -10 c5 4 6 0 3
-8 -8 -23 -32 -16 -26 7 3 11 7 15 10 8 2 -7 8 -10 13 -7z"/>
<path d="M181 574 c0 -11 3 -14 6 -6 3 7 2 16 -1 19 -3 4 -6 -2 -5 -13z"/>
<path d="M1282 560 c0 -19 2 -27 5 -17 2 9 2 25 0 35 -3 9 -5 1 -5 -18z"/>
<path d="M321 554 c0 -11 3 -14 6 -6 3 7 2 16 -1 19 -3 4 -6 -2 -5 -13z"/>
<path d="M1142 540 c0 -14 2 -19 5 -12 2 6 2 18 0 25 -3 6 -5 1 -5 -13z"/>
<path d="M171 514 c0 -11 3 -14 6 -6 3 7 2 16 -1 19 -3 4 -6 -2 -5 -13z"/>
<path d="M1142 490 c0 -14 2 -19 5 -12 2 6 2 18 0 25 -3 6 -5 1 -5 -13z"/>
<path d="M236 492 c-3 -6 -1 -14 5 -17 15 -10 25 3 12 16 -7 7 -13 7 -17 1z"/>
<path d="M1206 493 c-11 -11 -6 -23 9 -23 8 0 15 4 15 9 0 13 -16 22 -24 14z"/>
<path d="M1278 465 c-3 -22 -9 -49 -12 -60 -4 -11 1 -5 9 14 9 18 15 45 13 60
-3 21 -5 18 -10 -14z"/>
<path d="M321 474 c0 -11 3 -14 6 -6 3 7 2 16 -1 19 -3 4 -6 -2 -5 -13z"/>
<path d="M181 454 c0 -11 3 -14 6 -6 3 7 2 16 -1 19 -3 4 -6 -2 -5 -13z"/>
<path d="M1120 430 c-17 -42 -81 -97 -154 -131 -33 -16 -53 -29 -43 -29 11 0
27 -20 44 -57 15 -32 29 -60 30 -61 1 -2 29 11 63 29 74 39 148 104 173 150
l18 34 -22 -30 c-54 -71 -176 -165 -216 -165 -11 0 -63 87 -63 104 0 3 18 15
40 26 23 12 59 37 81 57 39 35 75 90 66 99 -2 3 -10 -9 -17 -26z"/>
<path d="M330 441 c0 -6 4 -13 10 -16 6 -3 7 1 4 9 -7 18 -14 21 -14 7z"/>
<path d="M190 420 c0 -49 118 -188 192 -226 43 -22 33 -11 -21 24 -64 42 -117
102 -147 166 -13 28 -24 44 -24 36z"/>
<path d="M365 390 c30 -36 56 -59 90 -75 17 -9 21 -10 11 -3 -11 7 -43 33 -70
58 -28 25 -42 34 -31 20z"/>
<path d="M503 289 c9 -6 14 -16 11 -22 -5 -8 -2 -7 7 1 12 11 12 14 -1 22 -8
5 -19 10 -25 10 -5 -1 -2 -5 8 -11z"/>
<path d="M578 263 c7 -3 16 -2 19 1 4 3 -2 6 -13 5 -11 0 -14 -3 -6 -6z"/>
<path d="M878 263 c7 -3 16 -2 19 1 4 3 -2 6 -13 5 -11 0 -14 -3 -6 -6z"/>
<path d="M618 253 c6 -2 18 -2 25 0 6 3 1 5 -13 5 -14 0 -19 -2 -12 -5z"/>
<path d="M823 253 c9 -2 23 -2 30 0 6 3 -1 5 -18 5 -16 0 -22 -2 -12 -5z"/>
<path d="M698 243 c17 -2 47 -2 65 0 17 2 3 4 -33 4 -36 0 -50 -2 -32 -4z"/>
<path d="M550 215 c-5 -14 -10 -32 -10 -40 0 -16 27 -28 35 -15 4 6 -1 10 -9
10 -19 0 -19 1 -6 35 9 24 12 25 27 14 14 -12 16 -12 11 1 -8 26 -37 23 -48
-5z"/>
<path d="M900 236 c0 -2 5 -17 10 -31 17 -45 -2 -53 -22 -9 -16 34 -18 35 -12
9 7 -39 30 -63 45 -48 12 12 4 69 -12 78 -5 4 -9 4 -9 1z"/>
<path d="M616 208 c-12 -48 -7 -68 17 -67 16 1 18 2 5 6 -10 2 -18 11 -18 20
0 10 6 13 18 8 14 -5 15 -4 5 6 -18 18 -16 29 5 29 14 0 15 2 2 10 -22 14 -27
12 -34 -12z"/>
<path d="M676 204 c-3 -9 -6 -30 -5 -47 0 -32 0 -32 11 -7 l10 25 9 -22 c10
-27 23 -31 15 -5 -3 9 -1 24 4 32 5 9 5 19 -2 27 -14 18 -35 16 -42 -3z m34
-9 c0 -8 -4 -15 -10 -15 -5 0 -10 7 -10 15 0 8 5 15 10 15 6 0 10 -7 10 -15z"/>
<path d="M757 203 c-3 -10 -8 -31 -12 -47 -6 -27 -5 -28 11 -15 13 11 18 11
21 2 3 -7 9 -13 13 -13 5 0 2 20 -7 45 -17 50 -20 53 -26 28z"/>
<path d="M812 183 c2 -31 7 -39 26 -41 12 -2 22 2 22 8 0 6 -5 8 -11 4 -13 -8
-29 13 -29 40 0 12 5 16 15 12 8 -3 15 -1 15 4 0 6 -9 10 -21 10 -17 0 -20 -5
-17 -37z"/>
<path d="M475 149 c22 -10 47 -18 55 -18 8 0 1 6 -17 12 -17 7 -35 15 -39 20
-4 4 -14 7 -23 6 -9 0 2 -9 24 -20z"/>
<path d="M945 140 c-13 -6 -15 -9 -5 -9 8 0 22 4 30 9 18 12 2 12 -25 0z"/>
<path d="M558 123 c7 -3 16 -2 19 1 4 3 -2 6 -13 5 -11 0 -14 -3 -6 -6z"/>
<path d="M898 123 c7 -3 16 -2 19 1 4 3 -2 6 -13 5 -11 0 -14 -3 -6 -6z"/>
<path d="M603 113 c9 -2 23 -2 30 0 6 3 -1 5 -18 5 -16 0 -22 -2 -12 -5z"/>
<path d="M838 113 c6 -2 18 -2 25 0 6 3 1 5 -13 5 -14 0 -19 -2 -12 -5z"/>
<path d="M697 103 c18 -2 50 -2 70 0 21 2 7 4 -32 4 -38 0 -55 -2 -38 -4z"/>
</g>
</svg>
