<?xml version="1.0" encoding="UTF-8"?>
<!DOCTYPE svg PUBLIC "-//W3C//DTD SVG 1.1//EN" "http://www.w3.org/Graphics/SVG/1.1/DTD/svg11.dtd">
<svg xmlns="http://www.w3.org/2000/svg" version="1.1" width="3500px" height="1px" style="shape-rendering:geometricPrecision; text-rendering:geometricPrecision; image-rendering:optimizeQuality; fill-rule:evenodd; clip-rule:evenodd" xmlns:xlink="http://www.w3.org/1999/xlink">
<g><path style="opacity:0.835" fill="#113275" d="M 221.5,69.5 C 221.5,76.1667 221.5,82.8333 221.5,89.5C 221.167,89.5 220.833,89.5 220.5,89.5C 219.275,69.7168 211.108,53.3835 196,40.5C 193.892,45.2907 194.392,49.7907 197.5,54C 196.968,56.0197 195.635,56.853 193.5,56.5C 192.545,58.7099 191.045,59.0432 189,57.5C 188.506,59.1341 188.34,60.8008 188.5,62.5C 187.127,62.6567 185.793,62.49 184.5,62C 180.652,57.9844 176.652,54.1511 172.5,50.5C 173,49.1195 174,48.4528 175.5,48.5C 176.864,49.0431 178.197,49.2098 179.5,49C 177.981,47.6487 176.648,46.1487 175.5,44.5C 176.09,43.2011 177.09,42.3678 178.5,42C 177.378,40.3866 177.878,39.2199 180,38.5C 184.393,40.9084 188.893,41.075 193.5,39C 166.57,19.0117 136.237,10.0117 102.5,12C 80.5356,12.9908 59.869,18.6574 40.5,29C 33.8951,32.7909 27.8951,37.2909 22.5,42.5C 21.8333,42.5 21.5,42.8333 21.5,43.5C 10.2978,53.5769 2.96448,65.9102 -0.5,80.5C -0.5,75.8333 -0.5,71.1667 -0.5,66.5C 12.1827,42.3252 31.516,25.8252 57.5,17C 86.6994,7.63327 116.366,5.96661 146.5,12C 171.087,17.872 191.92,30.0387 209,48.5C 214.213,54.9349 218.38,61.9349 221.5,69.5 Z M 132.5,24.5 C 133.97,27.5572 133.303,28.0572 130.5,26C 131.416,25.7216 132.082,25.2216 132.5,24.5 Z M 129.5,30.5 C 132.774,31.3785 133.107,32.7119 130.5,34.5C 129.571,33.3112 129.238,31.9778 129.5,30.5 Z M 50.5,36.5 C 49.828,37.2674 48.9947,37.9341 48,38.5C 47.8119,36.9387 48.6453,36.272 50.5,36.5 Z M 49.5,40.5 C 55.945,39.4769 56.1117,40.4769 50,43.5C 49.5172,42.552 49.3505,41.552 49.5,40.5 Z M 179.5,43.5 C 180.5,43.5 181.5,43.5 182.5,43.5C 182.5,44.5 182.5,45.5 182.5,46.5C 181.167,45.8333 180.167,44.8333 179.5,43.5 Z M 190.5,47.5 C 184.999,44.946 185.332,44.1127 191.5,45C 190.748,45.6708 190.414,46.5041 190.5,47.5 Z M 32.5,45.5 C 36.3079,46.4388 36.3079,47.7721 32.5,49.5C 29.8753,48.1353 29.8753,46.802 32.5,45.5 Z M 25.5,50.5 C 29.5644,52.3922 29.3977,53.7255 25,54.5C 24.5,54.1667 24,53.8333 23.5,53.5C 24.1925,52.4822 24.8592,51.4822 25.5,50.5 Z M 189.5,52.5 C 192.142,52.4877 193.475,53.821 193.5,56.5C 191.833,55.5 190.5,54.1667 189.5,52.5 Z M 181.5,53.5 C 184.336,53.2022 184.836,53.8689 183,55.5C 182.283,54.9558 181.783,54.2891 181.5,53.5 Z"/></g>
<g><path style="opacity:0.808" fill="#103375" d="M 100.5,15.5 C 102.872,16.7231 105.372,17.7231 108,18.5C 109.279,16.0629 110.779,15.5629 112.5,17C 114.833,17.3333 117.167,17.6667 119.5,18C 119.957,18.414 120.291,18.914 120.5,19.5C 119.088,20.8064 117.421,21.6397 115.5,22C 117.703,24.76 118.036,27.76 116.5,31C 117.793,31.49 119.127,31.6567 120.5,31.5C 120.5,32.5 120.5,33.5 120.5,34.5C 118.5,34.5 116.5,34.5 114.5,34.5C 114.5,35.8333 114.5,37.1667 114.5,38.5C 111.5,38.8333 110.167,37.5 110.5,34.5C 107.235,34.918 104.235,36.0847 101.5,38C 99.3594,38.8837 97.6927,38.3837 96.5,36.5C 97.0253,35.8076 97.6919,35.3076 98.5,35C 97.376,34.7508 96.376,34.2508 95.5,33.5C 96.714,31.9309 98.3807,31.0976 100.5,31C 99.565,28.6194 99.2317,26.1194 99.5,23.5C 97.6536,23.7778 96.3202,23.1112 95.5,21.5C 97.5368,19.7976 99.2034,17.7976 100.5,15.5 Z"/></g>
<g><path style="opacity:0.845" fill="#113375" d="M 128.5,16.5 C 131.389,16.999 132.056,18.499 130.5,21C 131.416,21.3742 132.25,21.8742 133,22.5C 133.374,21.5838 133.874,20.7504 134.5,20C 137.23,19.2716 139.897,19.4383 142.5,20.5C 143.341,25.1342 143.341,29.8009 142.5,34.5C 146.926,34.8594 147.593,36.6927 144.5,40C 141.376,41.0865 139.043,40.2532 137.5,37.5C 138.678,32.7895 139.011,28.1228 138.5,23.5C 137.395,27.5268 136.229,31.5268 135,35.5C 132.177,38.5712 128.844,39.2379 125,37.5C 125,35.5 125,33.5 125,31.5C 123.174,32.8413 122.007,32.3413 121.5,30C 122.996,28.6693 124.329,27.1693 125.5,25.5C 124.737,24.2807 123.737,23.2807 122.5,22.5C 125.024,21.0373 127.024,19.0373 128.5,16.5 Z M 132.5,24.5 C 132.082,25.2216 131.416,25.7216 130.5,26C 133.303,28.0572 133.97,27.5572 132.5,24.5 Z M 129.5,30.5 C 129.238,31.9778 129.571,33.3112 130.5,34.5C 133.107,32.7119 132.774,31.3785 129.5,30.5 Z"/></g>
<g><path style="opacity:0.819" fill="#103275" d="M 82.5,17.5 C 83.5,17.5 84.5,17.5 85.5,17.5C 85.8333,19.5 86.1667,21.5 86.5,23.5C 88.5,23.5 90.5,23.5 92.5,23.5C 92.2542,26.4701 90.5876,27.8034 87.5,27.5C 88.0049,30.5212 88.6716,33.5212 89.5,36.5C 88.595,39.8602 87.095,40.1935 85,37.5C 84.304,34.5219 83.804,31.5219 83.5,28.5C 81.2075,28.7564 79.0408,28.4231 77,27.5C 76.9856,29.4708 77.3189,31.4708 78,33.5C 79.6136,31.0499 81.1136,31.2166 82.5,34C 81.0367,36.6312 79.0367,38.7979 76.5,40.5C 74.1269,37.3315 73.1269,33.6649 73.5,29.5C 71.8333,29.5 70.1667,29.5 68.5,29.5C 68.33,28.1779 68.6634,27.0113 69.5,26C 71.7695,25.2419 73.9361,25.4086 76,26.5C 78.0521,25.2766 80.2188,24.2766 82.5,23.5C 81.181,21.4684 81.181,19.4684 82.5,17.5 Z"/></g>
<g><path style="opacity:0.804" fill="#113376" d="M 71.5,19.5 C 74.7967,19.6317 76.4633,21.2984 76.5,24.5C 71.9728,25.138 70.3061,23.4714 71.5,19.5 Z"/></g>
<g><path style="opacity:0.824" fill="#113275" d="M 156.5,22.5 C 157.822,22.33 158.989,22.6634 160,23.5C 161.081,25.622 161.748,27.622 162,29.5C 163.607,21.5424 165.44,21.5424 167.5,29.5C 168.833,28.5 170.167,27.5 171.5,26.5C 175.391,28.204 175.391,30.0374 171.5,32C 174.314,34.7205 174.148,37.2205 171,39.5C 170.25,38.8742 169.416,38.3742 168.5,38C 169.711,37.1072 169.711,36.2739 168.5,35.5C 167.738,36.6283 167.071,37.7949 166.5,39C 169.525,39.1545 171.191,40.6545 171.5,43.5C 168.687,43.4519 166.021,42.7853 163.5,41.5C 159.593,47.0139 156.593,46.6806 154.5,40.5C 156.109,40.9059 157.443,40.9059 158.5,40.5C 155.142,38.8286 151.808,37.162 148.5,35.5C 149,34.1195 150,33.4528 151.5,33.5C 152.864,34.0431 154.197,34.2098 155.5,34C 154.437,32.8118 153.103,32.3118 151.5,32.5C 151.267,27.889 153.267,26.0556 157.5,27C 156.62,25.6439 156.286,24.1439 156.5,22.5 Z"/></g>
<g><path style="opacity:0.837" fill="#113275" d="M 56.5,25.5 C 59.0444,25.1043 61.2111,25.771 63,27.5C 65.1135,32.0598 66.9469,36.7265 68.5,41.5C 68.3918,42.4419 68.0585,43.2753 67.5,44C 61.9506,46.4611 56.2839,48.6278 50.5,50.5C 49.5224,50.0233 48.6891,49.3567 48,48.5C 44.8216,43.1795 43.155,37.5128 43,31.5C 47.626,29.5776 52.126,27.5776 56.5,25.5 Z M 50.5,36.5 C 48.6453,36.272 47.8119,36.9387 48,38.5C 48.9947,37.9341 49.828,37.2674 50.5,36.5 Z M 49.5,40.5 C 49.3505,41.552 49.5172,42.552 50,43.5C 56.1117,40.4769 55.945,39.4769 49.5,40.5 Z"/></g>
<g><path style="opacity:0.867" fill="#113275" d="M 21.5,43.5 C 22.1667,43.5 22.5,43.1667 22.5,42.5C 24.3904,42.2965 25.8904,42.9632 27,44.5C 29.0583,42.9317 31.2249,41.5983 33.5,40.5C 42.2346,44.1612 42.568,48.3279 34.5,53C 36.9535,54.7401 38.4535,56.9067 39,59.5C 37.9505,60.5171 36.7839,60.6838 35.5,60C 34,58.5 32.5,57 31,55.5C 25.4794,61.4114 21.3128,60.5781 18.5,53C 19.7763,50.7194 21.4429,48.7194 23.5,47C 22.1772,46.1841 21.5106,45.0174 21.5,43.5 Z M 32.5,45.5 C 29.8753,46.802 29.8753,48.1353 32.5,49.5C 36.3079,47.7721 36.3079,46.4388 32.5,45.5 Z M 25.5,50.5 C 24.8592,51.4822 24.1925,52.4822 23.5,53.5C 24,53.8333 24.5,54.1667 25,54.5C 29.3977,53.7255 29.5644,52.3922 25.5,50.5 Z"/></g>
<g><path style="opacity:0.783" fill="#103275" d="M 98.5,41.5 C 106.174,41.3336 113.841,41.5003 121.5,42C 124.723,43.6598 126.557,46.1598 127,49.5C 124.281,48.5562 121.448,48.2229 118.5,48.5C 118.5,47.1667 118.5,45.8333 118.5,44.5C 112.833,44.5 107.167,44.5 101.5,44.5C 101.5,45.8333 101.5,47.1667 101.5,48.5C 98.8806,48.2317 96.3806,48.565 94,49.5C 94.6665,46.513 96.1665,43.8463 98.5,41.5 Z"/></g>
<g><path style="opacity:0.888" fill="#123374" d="M 88.5,42.5 C 90.288,42.2148 91.9547,42.5481 93.5,43.5C 92.018,45.4829 90.3513,47.3163 88.5,49C 81.7602,49.8417 75.0936,51.0084 68.5,52.5C 68.1667,52.1667 67.8333,51.8333 67.5,51.5C 69.4311,49.1956 71.7644,47.3622 74.5,46C 79.3411,45.0047 84.0078,43.838 88.5,42.5 Z"/></g>
<g><path style="opacity:0.868" fill="#113275" d="M 126.5,42.5 C 133.257,43.0845 139.924,44.2511 146.5,46C 148.976,47.3088 150.976,49.1421 152.5,51.5C 145.512,51.576 138.512,50.7427 131.5,49C 129.946,46.6293 128.279,44.4626 126.5,42.5 Z"/></g>
<g><path style="opacity:0.73" fill="#123475" d="M 153.5,48.5 C 160.207,51.1914 166.874,53.858 173.5,56.5C 173.649,57.552 173.483,58.552 173,59.5C 168.066,57.0772 162.9,55.2438 157.5,54C 155.536,52.549 154.203,50.7157 153.5,48.5 Z"/></g>
<g><path style="opacity:0.671" fill="#113276" d="M 65.5,48.5 C 66.0431,48.56 66.3764,48.8933 66.5,49.5C 65.6872,50.8139 64.6872,51.9805 63.5,53C 59.5399,54.8402 55.5399,55.6735 51.5,55.5C 56.2497,53.1252 60.9163,50.7918 65.5,48.5 Z"/></g>
<g><path style="opacity:0.864" fill="#103275" d="M 91.5,51.5 C 94.8333,51.5 98.1667,51.5 101.5,51.5C 101.67,52.8221 101.337,53.9887 100.5,55C 95.9702,58.3623 91.3035,61.5289 86.5,64.5C 86.655,59.8118 88.3217,55.4785 91.5,51.5 Z"/></g>
<g><path style="opacity:0.854" fill="#113276" d="M 118.5,51.5 C 122.571,51.2338 126.571,51.5672 130.5,52.5C 133.292,56.2075 134.625,60.2075 134.5,64.5C 128.66,60.6077 123.326,56.2744 118.5,51.5 Z"/></g>
<g><path style="opacity:0.933" fill="#113276" d="M 78.5,52.5 C 81.2469,52.1866 83.9135,52.52 86.5,53.5C 84.2597,56.8796 82.5931,60.5463 81.5,64.5C 73.5689,66.4197 65.5689,68.0863 57.5,69.5C 59.1491,64.7035 61.4824,60.2035 64.5,56C 69.2954,54.8011 73.9621,53.6345 78.5,52.5 Z"/></g>
<g><path style="opacity:0.93" fill="#113275" d="M 134.5,52.5 C 141.562,53.2326 148.562,54.3993 155.5,56C 158.858,59.195 161.191,63.0283 162.5,67.5C 161.5,67.8333 160.5,68.1667 159.5,68.5C 152.851,67.3121 146.185,66.3121 139.5,65.5C 138.117,61.0664 136.451,56.7331 134.5,52.5 Z"/></g>
<g><path style="opacity:0.916" fill="#113275" d="M 58.5,56.5 C 59.3764,56.3691 60.0431,56.7025 60.5,57.5C 58.3557,61.6212 56.3557,65.7879 54.5,70C 46.4711,71.8986 38.6378,74.3986 31,77.5C 30.5,77.1667 30,76.8333 29.5,76.5C 32.6434,72.189 35.9767,68.0224 39.5,64C 45.7638,61.0318 52.0971,58.5318 58.5,56.5 Z"/></g>
<g><path style="opacity:0.909" fill="#113275" d="M 160.5,57.5 C 168.555,59.241 176.222,62.0744 183.5,66C 187.441,69.0871 189.941,72.9204 191,77.5C 183.216,73.8441 175.049,71.3441 166.5,70C 164.088,66.0095 162.088,61.8429 160.5,57.5 Z"/></g>
<g><path style="opacity:0.903" fill="#113375" d="M 77.5,67.5 C 78.675,67.281 79.675,67.6143 80.5,68.5C 71.5298,74.3044 62.6965,80.3044 54,86.5C 53.8577,81.3727 54.691,76.3727 56.5,71.5C 63.6409,70.2571 70.6409,68.9238 77.5,67.5 Z"/></g>
<g><path style="opacity:0.879" fill="#113275" d="M 141.5,67.5 C 148.839,68.6126 156.173,69.9459 163.5,71.5C 165.458,75.9345 166.791,80.6012 167.5,85.5C 166.998,86.521 166.332,86.6877 165.5,86C 158.179,80.338 150.512,75.1713 142.5,70.5C 141.614,69.675 141.281,68.675 141.5,67.5 Z"/></g>
<g><path style="opacity:0.929" fill="#103276" d="M 100.5,71.5 C 101.829,77.1275 102.496,83.1275 102.5,89.5C 102.333,95.5 102.167,101.5 102,107.5C 92.7217,102.114 83.555,96.614 74.5,91C 83.0484,84.2772 91.715,77.7772 100.5,71.5 Z"/></g>
<g><path style="opacity:0.954" fill="#113376" d="M 117.5,70.5 C 127.519,76.842 137.185,83.6754 146.5,91C 137.28,97.1981 127.78,103.031 118,108.5C 118.83,95.8662 118.664,83.1995 117.5,70.5 Z"/></g>
<g><path style="opacity:0.937" fill="#113275" d="M 166.5,71.5 C 175.345,73.713 184.012,76.5463 192.5,80C 193.971,83.3209 194.637,86.8209 194.5,90.5C 186.057,90.9381 177.723,90.4381 169.5,89C 168.443,83.2108 167.443,77.3775 166.5,71.5 Z"/></g>
<g><path style="opacity:0.949" fill="#103276" d="M 49.5,72.5 C 50.8333,72.5 52.1667,72.5 53.5,72.5C 53.0075,78.1224 52.0075,83.6224 50.5,89C 42.6112,90.4352 34.6112,90.9352 26.5,90.5C 26.5941,86.8642 27.2607,83.3642 28.5,80C 35.5713,77.3676 42.5713,74.8676 49.5,72.5 Z"/></g>
<g><path style="opacity:0.9" fill="#113375" d="M 26.5,92.5 C 34.5069,92.3336 42.5069,92.5003 50.5,93C 52.671,97.3395 53.3376,101.84 52.5,106.5C 44.1815,104.561 36.1815,101.727 28.5,98C 27.536,96.2745 26.8693,94.4412 26.5,92.5 Z"/></g>
<g><path style="opacity:0.916" fill="#113274" d="M 171.5,92.5 C 179.167,92.5 186.833,92.5 194.5,92.5C 194.451,95.0991 193.451,97.2658 191.5,99C 183.388,102.277 175.055,104.777 166.5,106.5C 167.329,102.514 168.163,98.514 169,94.5C 169.995,93.9341 170.828,93.2674 171.5,92.5 Z"/></g>
<g><path style="opacity:0.832" fill="#113275" d="M 220.5,89.5 C 220.833,89.5 221.167,89.5 221.5,89.5C 221.5,96.8333 221.5,104.167 221.5,111.5C 208.622,136.862 188.622,154.362 161.5,164C 120.875,177.267 81.2081,174.933 42.5,157C 23.2308,147.232 8.89746,132.732 -0.5,113.5C -0.5,109.167 -0.5,104.833 -0.5,100.5C 5.88198,122.728 19.2153,139.562 39.5,151C 79.6625,171.264 120.996,173.931 163.5,159C 184.212,150.938 200.712,137.772 213,119.5C 218.272,110.185 220.772,100.185 220.5,89.5 Z"/></g>
<g><path style="opacity:0.85" fill="#113276" d="M 53.5,95.5 C 61.6107,99.3909 69.2774,104.058 76.5,109.5C 76.1667,109.833 75.8333,110.167 75.5,110.5C 69.2573,108.96 62.924,107.96 56.5,107.5C 55.5003,103.501 54.5003,99.5007 53.5,95.5 Z"/></g>
<g><path style="opacity:0.857" fill="#113375" d="M 164.5,96.5 C 165.497,96.4701 166.164,96.9701 166.5,98C 165.434,101.094 164.768,104.26 164.5,107.5C 158.087,108.035 151.753,109.035 145.5,110.5C 145.167,110.167 144.833,109.833 144.5,109.5C 151.232,105.143 157.898,100.809 164.5,96.5 Z"/></g>
<g><path style="opacity:0.919" fill="#113274" d="M 28.5,100.5 C 36.4759,104.079 44.8092,106.579 53.5,108C 55.7481,111.829 57.7481,115.829 59.5,120C 59.1667,120.5 58.8333,121 58.5,121.5C 51.717,119.295 45.0504,116.795 38.5,114C 34.0625,110.28 30.7292,105.78 28.5,100.5 Z"/></g>
<g><path style="opacity:0.901" fill="#113274" d="M 191.5,100.5 C 191.086,104.458 189.086,107.958 185.5,111C 178.848,114.826 171.848,117.826 164.5,120C 163.056,120.781 161.723,120.614 160.5,119.5C 162.99,116.188 164.657,112.522 165.5,108.5C 174.569,106.808 183.236,104.141 191.5,100.5 Z"/></g>
<g><path style="opacity:0.928" fill="#113375" d="M 58.5,109.5 C 66.1264,110.78 73.7931,111.78 81.5,112.5C 82.3142,117.134 83.9809,121.467 86.5,125.5C 79.0444,125.758 71.711,124.592 64.5,122C 61.5529,118.273 59.5529,114.106 58.5,109.5 Z"/></g>
<g><path style="opacity:0.934" fill="#113276" d="M 159.5,109.5 C 160.675,109.281 161.675,109.614 162.5,110.5C 160.794,114.75 158.461,118.583 155.5,122C 148.485,124.28 141.485,125.447 134.5,125.5C 137.01,121.482 138.677,117.148 139.5,112.5C 146.407,112.229 153.074,111.229 159.5,109.5 Z"/></g>
<g><path style="opacity:0.867" fill="#113375" d="M 85.5,115.5 C 90.6049,117.887 95.6049,120.554 100.5,123.5C 101.429,124.689 101.762,126.022 101.5,127.5C 97.6924,127.837 94.0257,127.337 90.5,126C 88.4207,122.676 86.7541,119.176 85.5,115.5 Z"/></g>
<g><path style="opacity:0.854" fill="#113276" d="M 133.5,114.5 C 134.497,114.47 135.164,114.97 135.5,116C 134.097,119.473 132.43,122.806 130.5,126C 126.637,127.354 122.637,127.854 118.5,127.5C 118.297,125.61 118.963,124.11 120.5,123C 125.24,120.64 129.574,117.807 133.5,114.5 Z"/></g>
<g><path style="opacity:0.815" fill="#113276" d="M 175.5,117.5 C 176.675,117.281 177.675,117.614 178.5,118.5C 171.441,123.698 163.775,127.864 155.5,131C 154.365,131.749 153.365,131.583 152.5,130.5C 154.316,128.183 156.316,126.016 158.5,124C 164.607,122.691 170.274,120.525 175.5,117.5 Z"/></g>
<g><path style="opacity:0.826" fill="#103376" d="M 47.5,120.5 C 52.1482,121.829 56.8149,123.163 61.5,124.5C 63.8061,126.139 65.8061,128.139 67.5,130.5C 67.1667,130.833 66.8333,131.167 66.5,131.5C 62.6194,129.393 58.6194,127.559 54.5,126C 51.6639,124.609 49.3306,122.776 47.5,120.5 Z"/></g>
<g><path style="opacity:0.89" fill="#113275" d="M 68.5,125.5 C 75.0033,127.366 81.67,128.533 88.5,129C 90.31,131.644 92.31,134.144 94.5,136.5C 88.513,136.673 82.513,135.84 76.5,134C 72.9295,131.932 70.2629,129.099 68.5,125.5 Z"/></g>
<g><path style="opacity:0.876" fill="#113276" d="M 150.5,125.5 C 152.028,125.517 152.528,126.184 152,127.5C 149.795,130.04 147.295,132.207 144.5,134C 138.245,136.157 131.911,136.99 125.5,136.5C 128.356,134.478 130.689,131.978 132.5,129C 138.736,128.353 144.736,127.187 150.5,125.5 Z"/></g>
<g><path style="opacity:0.868" fill="#113375" d="M 92.5,129.5 C 95.5,129.5 98.5,129.5 101.5,129.5C 101.5,131.167 101.5,132.833 101.5,134.5C 107.167,134.5 112.833,134.5 118.5,134.5C 118.5,132.833 118.5,131.167 118.5,129.5C 121.898,129.18 125.232,129.513 128.5,130.5C 124.333,137.664 118.167,140.331 110,138.5C 106.5,138.333 103,138.167 99.5,138C 96.5532,135.564 94.2199,132.731 92.5,129.5 Z"/></g>
<g><path style="opacity:0.909" fill="#113275" d="M 159.5,132.5 C 164.501,131.671 166.668,133.671 166,138.5C 159.735,137.188 153.902,138.355 148.5,142C 149.337,143.011 149.67,144.178 149.5,145.5C 154.474,145.191 158.474,143.191 161.5,139.5C 162.994,141.942 163.994,144.609 164.5,147.5C 159.919,147.433 155.419,148.433 151,150.5C 150.976,153.302 152.476,154.636 155.5,154.5C 155.5,155.5 155.5,156.5 155.5,157.5C 149.32,159.402 142.987,160.402 136.5,160.5C 136.736,158.027 138.069,156.36 140.5,155.5C 139.605,152.192 138.771,148.859 138,145.5C 136.934,143.901 135.434,142.901 133.5,142.5C 132.479,141.998 132.312,141.332 133,140.5C 142.033,138.204 150.866,135.538 159.5,132.5 Z"/></g>
<g><path style="opacity:0.913" fill="#113275" d="M 67.5,135.5 C 75.9415,135.235 83.7749,137.235 91,141.5C 91.772,141.355 92.4387,141.022 93,140.5C 93.4657,143.312 92.9657,145.979 91.5,148.5C 87.1633,143.777 81.83,141.943 75.5,143C 70.7152,148.683 72.0486,152.349 79.5,154C 83.1483,154.062 86.815,153.895 90.5,153.5C 90.162,155.854 89.662,158.187 89,160.5C 86.6091,158.338 83.9425,158.005 81,159.5C 71.3802,159.363 64.0469,155.363 59,147.5C 58.4986,141.164 61.3319,137.164 67.5,135.5 Z"/></g>
<g><path style="opacity:0.917" fill="#103375" d="M 107.5,141.5 C 114.249,141.733 120.915,141.733 127.5,141.5C 128.652,144.106 128.818,146.773 128,149.5C 122.236,145.644 116.569,145.644 111,149.5C 109.127,154.683 111.127,157.683 117,158.5C 121.239,157.292 125.406,155.958 129.5,154.5C 129.663,156.857 129.497,159.19 129,161.5C 128.439,160.978 127.772,160.645 127,160.5C 117.701,164.599 108.534,164.433 99.5,160C 94.7455,155.649 94.4122,150.982 98.5,146C 101.437,144.199 104.437,142.699 107.5,141.5 Z"/></g>
</svg>
