<?xml version="1.0" standalone="no"?>
<!DOCTYPE svg PUBLIC "-//W3C//DTD SVG 20010904//EN"
 "http://www.w3.org/TR/2001/REC-SVG-20010904/DTD/svg10.dtd">
<svg version="1.0" xmlns="http://www.w3.org/2000/svg"
 width="24.000000pt" height="176.000000pt" viewBox="0 0 194.000000 176.000000"
 preserveAspectRatio="xMidYMid meet">

<g transform="translate(0.000000,176.000000) scale(0.100000,-0.100000)"
fill="#000000" stroke="none">
<path d="M815 1419 c-446 -61 -759 -368 -705 -690 44 -260 325 -485 675 -539
112 -18 322 -15 420 5 310 64 541 230 625 450 34 89 33 236 -2 322 -90 216
-309 374 -607 439 -84 18 -315 26 -406 13z m354 -24 c424 -69 715 -360 664
-662 -44 -252 -305 -461 -653 -524 -92 -17 -312 -17 -400 0 -256 48 -489 188
-589 355 -39 65 -71 171 -71 234 0 138 80 292 206 396 209 172 537 250 843
201z"/>
<path d="M892 1349 c-15 -24 -9 -37 11 -21 10 8 12 2 12 -34 0 -35 -4 -44 -17
-44 -10 0 -18 -4 -18 -10 0 -5 8 -10 18 -10 14 0 15 -2 2 -10 -22 -14 5 -13
47 2 29 10 36 10 44 -2 8 -11 12 -12 16 -2 2 6 13 12 24 12 10 0 19 5 19 10 0
6 -6 10 -12 10 -20 0 -18 88 2 94 10 2 8 4 -5 5 -12 0 -27 7 -34 14 -11 10
-14 10 -18 0 -6 -15 -49 -17 -58 -3 -9 15 -19 12 -33 -11z m68 -19 c0 -5 -4
-10 -10 -10 -5 0 -10 5 -10 10 0 6 5 10 10 10 6 0 10 -4 10 -10z m45 0 c3 -5
-1 -10 -9 -10 -9 0 -16 5 -16 10 0 6 4 10 9 10 6 0 13 -4 16 -10z m-12 -27
c-13 -2 -33 -2 -45 0 -13 2 -3 4 22 4 25 0 35 -2 23 -4z"/>
<path d="M1108 1340 c-12 -13 -13 -20 -5 -23 8 -3 7 -10 -5 -24 -22 -24 -23
-44 -2 -36 12 4 14 0 9 -19 -5 -21 -2 -26 16 -31 28 -8 59 17 59 47 0 33 11
66 22 66 5 0 8 -27 6 -62 -3 -59 -2 -63 20 -66 17 -3 22 2 22 19 0 18 -3 19
-15 9 -13 -10 -14 -3 -8 54 l6 66 -30 0 c-26 0 -31 -5 -36 -30 -5 -21 -11 -28
-22 -24 -20 8 -19 24 3 25 10 0 12 3 5 6 -7 2 -13 13 -13 24 0 23 -10 23 -32
-1z m52 -90 c0 -10 -29 -34 -35 -28 -10 10 8 46 21 41 8 -3 14 -9 14 -13z"/>
<path d="M770 1325 c0 -18 -5 -25 -20 -25 -11 0 -20 -4 -20 -10 0 -5 11 -10
25 -10 19 0 26 -7 31 -27 10 -46 13 -53 24 -53 6 0 9 8 7 18 -18 63 -17 70 6
77 l22 8 -24 4 c-13 3 -26 13 -28 24 -8 27 -23 23 -23 -6z"/>
<path d="M680 1331 c0 -11 31 -24 39 -16 3 3 -1 10 -9 15 -19 12 -30 12 -30 1z"/>
<path d="M1347 1314 c-3 -3 -3 -12 -1 -19 4 -8 -3 -15 -18 -17 -13 -2 -21 -7
-18 -13 2 -5 10 -9 18 -7 24 6 112 -29 112 -44 0 -8 4 -14 9 -14 17 0 23 20
11 35 -10 12 -10 18 0 30 17 21 -7 21 -30 0 -23 -21 -70 -2 -63 25 5 18 -9 34
-20 24z"/>
<path d="M1390 1290 c0 -11 5 -20 10 -20 6 0 10 9 10 20 0 11 -4 20 -10 20 -5
0 -10 -9 -10 -20z"/>
<path d="M535 1278 c-75 -29 -77 -34 -51 -98 13 -32 29 -56 39 -58 18 -4 103
24 124 40 13 10 -5 73 -33 115 -17 27 -14 27 -79 1z m75 -40 c11 -24 20 -48
20 -54 0 -13 -71 -44 -98 -43 -9 0 7 9 36 20 28 11 52 23 52 27 -1 19 -29 42
-44 36 -21 -8 -21 5 2 22 23 18 1 18 -43 0 -38 -16 -48 -32 -15 -23 11 3 20 1
20 -4 0 -5 -4 -9 -10 -9 -5 0 -10 -4 -10 -10 0 -5 9 -10 20 -10 11 0 20 -4 20
-10 0 -5 -4 -10 -9 -10 -5 0 -16 -2 -23 -5 -15 -6 -45 61 -33 73 5 6 81 39 93
41 2 1 12 -18 22 -41z"/>
<path d="M670 1280 c0 -5 6 -7 14 -4 11 4 17 -5 22 -33 9 -53 13 -57 35 -37
23 21 25 38 4 30 -11 -4 -17 3 -22 24 -4 23 -11 30 -29 30 -13 0 -24 -4 -24
-10z"/>
<path d="M1341 1234 c12 -15 10 -16 -19 -10 -43 10 -41 0 6 -20 27 -12 32 -18
20 -21 -22 -5 -23 -19 -3 -27 8 -3 21 1 29 9 10 10 25 13 47 8 23 -4 30 -3 25
5 -4 7 -14 12 -23 12 -10 0 -13 6 -9 16 4 11 -4 19 -29 30 -46 19 -61 18 -44
-2z"/>
<path d="M1510 1183 c0 -8 86 -83 96 -83 7 0 14 -7 18 -15 3 -8 10 -15 17 -15
7 0 8 7 4 18 -5 9 -11 34 -14 55 l-6 39 -57 2 c-32 2 -58 1 -58 -1z m100 -48
c0 -14 -1 -25 -3 -25 -2 0 -14 11 -27 25 l-23 25 26 0 c22 0 27 -5 27 -25z"/>
<path d="M366 1165 c-13 -10 -23 -12 -30 -5 -17 17 -29 11 -23 -11 4 -15 -1
-27 -15 -39 -17 -13 -19 -20 -10 -37 16 -30 42 -36 63 -17 18 16 20 16 37 1
19 -17 42 -23 42 -10 0 3 -8 15 -17 25 -16 18 -15 19 5 34 27 18 28 36 4 57
-22 21 -31 21 -56 2z m41 -32 c5 -15 -28 -26 -41 -13 -8 8 -7 14 4 20 17 11
32 8 37 -7z m-53 -32 c9 -15 -23 -36 -36 -23 -5 5 -7 15 -4 21 9 13 33 14 40
2z"/>
<path d="M875 1150 c-18 -20 -17 -20 7 -20 14 0 28 7 32 15 4 11 22 15 71 15
51 0 65 -3 65 -15 0 -10 10 -15 30 -15 29 0 29 1 13 20 -15 17 -30 20 -109 20
-78 0 -93 -3 -109 -20z"/>
<path d="M750 1148 c-25 -5 -53 -17 -63 -27 -16 -16 -13 -16 59 -6 54 7 78 15
85 28 12 20 -7 21 -81 5z"/>
<path d="M1134 1141 c10 -11 37 -22 64 -25 26 -4 61 -9 77 -13 29 -5 30 -5 12
14 -16 19 -102 43 -150 43 -19 0 -19 -1 -3 -19z"/>
<path d="M1503 1142 c24 -26 21 -35 -8 -28 -38 10 -30 -8 24 -53 57 -48 65
-50 59 -16 -4 21 -3 23 13 14 36 -19 19 9 -32 55 -50 45 -88 64 -56 28z m57
-61 c0 -18 -18 -21 -30 -6 -10 13 -9 15 9 15 11 0 21 -4 21 -9z"/>
<path d="M585 1090 c-22 -10 -36 -19 -32 -19 12 -1 77 27 77 33 0 7 3 8 -45
-14z"/>
<path d="M1339 1096 c6 -7 24 -16 39 -19 15 -3 36 -8 47 -12 11 -3 0 5 -25 19
-51 29 -79 34 -61 12z"/>
<path d="M854 1093 c-18 -3 -61 -69 -51 -79 6 -6 107 66 107 76 0 10 -17 11
-56 3z"/>
<path d="M1050 1098 c12 -14 114 -87 117 -84 2 1 -4 19 -12 39 -13 31 -20 37
-44 37 -16 0 -38 3 -48 7 -10 3 -16 4 -13 1z"/>
<path d="M712 1079 c-29 -5 -61 -13 -70 -18 -19 -10 -58 -78 -50 -86 3 -3 25
-1 49 4 24 6 59 11 77 11 29 0 35 5 52 46 11 25 20 48 20 50 0 5 -11 4 -78 -7z"/>
<path d="M1180 1084 c0 -2 7 -22 16 -44 10 -26 24 -42 38 -45 41 -9 146 -22
146 -18 0 2 -9 21 -19 42 -21 40 -12 37 -163 66 -10 2 -18 1 -18 -1z"/>
<path d="M508 1029 c-53 -19 -128 -82 -128 -108 0 -5 39 4 87 18 84 27 87 29
104 69 21 49 19 49 -63 21z"/>
<path d="M1380 1044 c0 -3 9 -22 20 -44 16 -32 27 -40 57 -46 21 -4 62 -15 91
-25 48 -17 51 -17 43 -1 -12 22 -50 56 -79 72 -33 17 -132 50 -132 44z"/>
<path d="M652 956 c-46 -7 -76 -17 -81 -26 -13 -25 -21 -80 -12 -80 5 0 47 25
93 56 92 62 95 65 82 63 -5 -1 -42 -7 -82 -13z"/>
<path d="M1235 963 c6 -5 48 -35 94 -67 l84 -57 -7 48 c-7 55 -12 59 -80 67
-28 4 -62 10 -76 13 -16 4 -22 2 -15 -4z"/>
<path d="M812 871 c-51 -38 -95 -70 -97 -72 -3 -4 167 -105 197 -117 4 -2 8
55 8 127 0 72 -3 131 -7 130 -5 0 -50 -31 -101 -68z"/>
<path d="M1050 809 c0 -101 3 -130 13 -126 6 2 54 29 105 59 l93 55 -105 72
-106 72 0 -132z"/>
<path d="M470 916 c-25 -7 -62 -20 -82 -29 -34 -14 -38 -20 -38 -51 l0 -36 73
0 c43 0 80 5 89 13 9 6 19 35 22 65 7 58 8 58 -64 38z"/>
<path d="M1432 878 c5 -29 14 -59 20 -65 12 -14 46 -16 125 -7 51 6 52 8 47
33 -9 38 -22 47 -98 70 -103 32 -105 31 -94 -31z"/>
<path d="M350 765 c0 -18 37 -37 123 -63 l69 -21 -7 42 c-4 23 -9 45 -12 50
-2 4 -42 7 -89 7 -67 0 -84 -3 -84 -15z"/>
<path d="M1447 773 c-3 -5 -10 -25 -15 -47 l-11 -38 41 6 c65 11 152 49 156
69 3 15 -6 17 -82 17 -47 0 -87 -3 -89 -7z"/>
<path d="M563 720 c4 -19 12 -37 18 -41 14 -8 110 -22 116 -16 2 3 -18 17 -44
32 -26 16 -59 35 -72 44 l-24 16 6 -35z"/>
<path d="M1337 706 c-72 -43 -72 -51 3 -38 35 6 48 14 58 35 7 15 12 31 10 36
-2 4 -34 -10 -71 -33z"/>
<path d="M384 682 c8 -15 22 -35 33 -44 18 -16 142 -68 163 -68 5 0 0 20 -12
44 -19 40 -26 46 -72 57 -28 7 -65 18 -83 26 -44 18 -46 17 -29 -15z"/>
<path d="M1506 680 c-82 -25 -90 -30 -108 -63 -24 -47 -13 -48 88 -6 49 20 81
41 95 60 12 17 20 31 18 33 -2 1 -44 -10 -93 -24z"/>
<path d="M590 646 c0 -20 42 -85 57 -90 32 -9 136 -26 140 -23 2 2 -6 24 -17
49 -19 44 -21 45 -77 52 -31 4 -67 9 -80 12 -13 4 -23 3 -23 0z"/>
<path d="M1292 635 l-73 -10 -20 -44 c-11 -24 -18 -45 -17 -47 5 -4 133 21
146 30 14 9 45 64 40 74 -2 4 -36 3 -76 -3z"/>
<path d="M1108 571 c-32 -20 -58 -40 -58 -44 0 -5 19 -7 42 -5 39 3 45 7 61
42 10 21 17 39 15 41 -2 1 -29 -14 -60 -34z"/>
<path d="M812 573 c19 -46 29 -53 65 -53 46 0 39 15 -25 52 l-52 30 12 -29z"/>
<path d="M1413 556 c-35 -12 -70 -31 -78 -43 -15 -22 -15 -22 12 -12 32 11
153 79 138 77 -5 0 -38 -10 -72 -22z"/>
<path d="M540 545 c0 -8 92 -47 97 -41 3 2 -6 11 -19 19 -25 16 -78 31 -78 22z"/>
<path d="M682 509 c6 -20 65 -46 122 -55 l49 -7 -19 26 c-15 19 -31 27 -73 32
-30 4 -61 9 -69 13 -10 3 -13 0 -10 -9z"/>
<path d="M1210 508 c-41 -7 -60 -16 -74 -35 l-19 -26 52 6 c51 6 121 39 121
58 0 10 -4 10 -80 -3z"/>
<path d="M880 465 c21 -23 31 -25 105 -25 74 0 84 2 105 25 l23 25 -31 0 c-22
0 -32 -5 -32 -15 0 -12 -14 -15 -70 -15 -56 0 -70 3 -70 15 0 10 -10 15 -27
15 l-26 0 23 -25z"/>
<path d="M1270 443 c-122 -35 -119 -34 -93 -43 14 -6 26 -23 32 -47 14 -51 14
-63 -4 -69 -20 -8 -8 -26 13 -20 10 3 37 10 60 16 43 11 44 12 26 32 -18 19
-18 20 1 34 18 13 44 18 73 15 6 -1 12 4 11 11 -1 19 -17 55 -18 40 -1 -15
-68 -45 -81 -37 -6 4 -10 14 -10 25 0 21 46 40 97 40 23 0 33 4 31 13 -7 19
-47 17 -138 -10z"/>
<path d="M630 438 c-36 -19 -48 -60 -27 -92 25 -37 73 -58 150 -66 61 -5 67
-4 67 13 0 15 -5 18 -26 14 -37 -7 -92 10 -104 32 -7 14 -5 25 11 45 26 32 56
33 102 2 32 -22 36 -22 40 -7 10 39 -161 86 -213 59z"/>
<path d="M925 383 c-37 -20 -45 -31 -45 -65 0 -55 86 -89 170 -68 25 7 53 12
63 13 19 1 21 6 9 24 -6 9 -16 9 -47 -1 -76 -27 -129 21 -79 71 26 25 35 26
102 7 17 -5 22 -2 22 13 0 17 -8 19 -82 21 -61 1 -91 -3 -113 -15z"/>
</g>
</svg>
