<?xml version="1.0" encoding="UTF-8"?>
<!DOCTYPE svg PUBLIC "-//W3C//DTD SVG 1.1//EN" "http://www.w3.org/Graphics/SVG/1.1/DTD/svg11.dtd">
<svg xmlns="http://www.w3.org/2000/svg" version="1.1" width="32px" height="32px" style="shape-rendering:geometricPrecision; text-rendering:geometricPrecision; image-rendering:optimizeQuality; fill-rule:evenodd; clip-rule:evenodd" xmlns:xlink="http://www.w3.org/1999/xlink">
<g><path style="opacity:0.955" fill="#5082c0" d="M 1.5,-0.5 C 3.83333,-0.5 6.16667,-0.5 8.5,-0.5C 10.2681,2.16248 10.9347,5.16248 10.5,8.5C 10.7787,13.5947 10.4454,18.5947 9.5,23.5C 5.85518,26.1722 2.52184,25.8388 -0.5,22.5C -0.5,15.5 -0.5,8.5 -0.5,1.5C 0.5,1.16667 1.16667,0.5 1.5,-0.5 Z"/></g>
<g><path style="opacity:0.954" fill="#b12c1d" d="M 31.5,4.5 C 31.5,11.1667 31.5,17.8333 31.5,24.5C 28.6241,27.4587 25.2908,28.1254 21.5,26.5C 20.5872,20.5594 20.2539,14.5594 20.5,8.5C 20.8674,2.84424 23.8674,1.01091 29.5,3C 30.0442,3.71719 30.7109,4.21719 31.5,4.5 Z"/></g>
<g><path style="opacity:0.981" fill="#fcb931" d="M 20.5,8.5 C 20.2539,14.5594 20.5872,20.5594 21.5,26.5C 21.2503,28.674 20.2503,30.3406 18.5,31.5C 16.5,31.5 14.5,31.5 12.5,31.5C 10.0181,29.4973 9.01812,26.8306 9.5,23.5C 10.4454,18.5947 10.7787,13.5947 10.5,8.5C 13.8333,5.83333 17.1667,5.83333 20.5,8.5 Z"/></g>
</svg>
