<svg xmlns="http://www.w3.org/2000/svg" viewBox="0 0 64 64" role="img" aria-label="Fenglin Blog favicon">
  <g transform="rotate(45 32 32)">
    <path
      fill="#4285F4"
      d="M32 3c9.9 0 18 8.1 18 18 0 7.5-4.7 13.9-11.4 16.7L32 41l-6.6-3.3C18.7 34.9 14 28.5 14 21c0-9.9 8.1-18 18-18Z"
    />
    <path
      fill="#EA4335"
      d="M61 32c0 9.9-8.1 18-18 18-7.5 0-13.9-4.7-16.7-11.4L23 32l3.3-6.6C29.1 18.7 35.5 14 43 14c9.9 0 18 8.1 18 18Z"
    />
    <path
      fill="#FBBC05"
      d="M32 61c-9.9 0-18-8.1-18-18 0-7.5 4.7-13.9 11.4-16.7L32 23l6.6 3.3C45.3 29.1 50 35.5 50 43c0 9.9-8.1 18-18 18Z"
    />
    <path
      fill="#34A853"
      d="M3 32c0-9.9 8.1-18 18-18 7.5 0 13.9 4.7 16.7 11.4L41 32l-3.3 6.6C34.9 45.3 28.5 50 21 50c-9.9 0-18-8.1-18-18Z"
    />
  </g>
  <circle cx="32" cy="32" r="4.8" fill="#fff"/>
</svg>
