<svg xmlns="http://www.w3.org/2000/svg" viewBox="0 0 64 64" role="img" aria-label="Fenglin Blog favicon">
  <g transform="rotate(45 32 32)">
    <path
      fill="#4285F4"
      d="M32 5c8.8 0 16 7.2 16 16 0 6.8-4.3 12.6-10.4 15.1L32 39l-5.6-2.9C20.3 33.6 16 27.8 16 21c0-8.8 7.2-16 16-16Z"
    />
    <path
      fill="#EA4335"
      d="M59 32c0 8.8-7.2 16-16 16-6.8 0-12.6-4.3-15.1-10.4L25 32l2.9-5.6C30.4 20.3 36.2 16 43 16c8.8 0 16 7.2 16 16Z"
    />
    <path
      fill="#FBBC05"
      d="M32 59c-8.8 0-16-7.2-16-16 0-6.8 4.3-12.6 10.4-15.1L32 25l5.6 2.9C43.7 30.4 48 36.2 48 43c0 8.8-7.2 16-16 16Z"
    />
    <path
      fill="#34A853"
      d="M5 32c0-8.8 7.2-16 16-16 6.8 0 12.6 4.3 15.1 10.4L39 32l-2.9 5.6C33.6 43.7 27.8 48 21 48c-8.8 0-16-7.2-16-16Z"
    />
  </g>
  <circle cx="32" cy="32" r="6.5" fill="#fff"/>
</svg>
