<svg width="128" height="128" viewBox="0 0 128 128" fill="none" xmlns="http://www.w3.org/2000/svg">
  <rect width="128" height="128" rx="30" fill="white"/>
  <path d="M64 22C68.8914 34.9348 72.0277 47.3568 73.409 59.2661C78.1768 49.7137 84.1382 40.6802 91.293 32.1658C92.9914 43.1439 92.7424 54.1757 90.5461 65.2614C97.5779 58.785 104.609 53.6957 111.641 49.9934C109.071 65.9956 101.044 78.8028 87.5608 88.4151L80.7214 93.1832H47.2786L40.4392 88.4151C26.9558 78.8028 18.9288 65.9956 16.3584 49.9934C23.3907 53.6957 30.4226 58.785 37.4541 65.2614C35.2576 54.1757 35.0086 43.1439 36.707 32.1658C43.8613 40.6802 49.8227 49.7137 54.591 59.2661C55.9723 47.3568 59.1086 34.9348 64 22Z" fill="#EA4335"/>
  <path d="M45 100H83" stroke="#EA4335" stroke-width="8" stroke-linecap="round"/>
  <rect x="2" y="2" width="124" height="124" rx="28" stroke="#F1F3F4" stroke-width="4"/>
</svg>
