<svg width="128" height="128" viewBox="0 0 128 128" fill="none" xmlns="http://www.w3.org/2000/svg">
  <rect width="128" height="128" rx="30" fill="#202124"/>
  <path d="M39 45C39 38.3726 44.3726 33 51 33H84V47H54C51.7909 47 50 48.7909 50 51C50 53.2091 51.7909 55 54 55H73C84.598 55 94 64.402 94 76C94 87.598 84.598 97 73 97H39V83H70C75.5228 83 80 78.5228 80 73C80 67.4772 75.5228 63 70 63H51C44.3726 63 39 57.6274 39 51V45Z" fill="white"/>
  <path d="M90 39H101V89C101 97.8366 93.8366 105 85 105H66V94H82C86.4183 94 90 90.4183 90 86V39Z" fill="#34A853"/>
  <circle cx="90.5" cy="39.5" r="10.5" fill="#4285F4"/>
</svg>
