<svg width="640" height="420" viewBox="0 0 640 420" fill="none" xmlns="http://www.w3.org/2000/svg">
  <defs>
    <linearGradient id="city-bg" x1="48" y1="24" x2="585" y2="380" gradientUnits="userSpaceOnUse">
      <stop stop-color="#E8F0FE"/>
      <stop offset="0.38" stop-color="#FCE8E6"/>
      <stop offset="0.7" stop-color="#FEF7E0"/>
      <stop offset="1" stop-color="#E6F4EA"/>
    </linearGradient>
  </defs>
  <rect width="640" height="420" rx="34" fill="url(#city-bg)"/>
  <circle cx="510" cy="102" r="64" fill="white" fill-opacity="0.45"/>
  <path d="M0 315C66 270.333 132 248 198 248C276.991 248 338 292 416 292C491.062 292 565.729 249 640 163V420H0V315Z" fill="#D8E7FD"/>
  <rect x="88" y="146" width="62" height="186" rx="12" fill="#4285F4"/>
  <rect x="156" y="118" width="74" height="214" rx="12" fill="#EA4335"/>
  <rect x="241" y="166" width="66" height="166" rx="12" fill="#FBBC05"/>
  <rect x="317" y="138" width="95" height="194" rx="14" fill="#34A853"/>
  <rect x="422" y="188" width="58" height="144" rx="12" fill="#669DF6"/>
  <rect x="492" y="156" width="72" height="176" rx="12" fill="#81C995"/>
  <path d="M104 192H134" stroke="white" stroke-opacity="0.45" stroke-width="10" stroke-linecap="round"/>
  <path d="M173 163H214" stroke="white" stroke-opacity="0.38" stroke-width="10" stroke-linecap="round"/>
  <path d="M329 172H391" stroke="white" stroke-opacity="0.42" stroke-width="10" stroke-linecap="round"/>
</svg>
